<svg width="24" height="25" viewBox="0 0 24 25" fill="none" xmlns="http://www.w3.org/2000/svg">
<path d="M21 20.6968C20.886 20.6968 20.7736 20.6709 20.6712 20.6209C20.5687 20.571 20.4791 20.4983 20.4089 20.4085C19.3373 19.0365 18.3431 17.9776 16.972 17.2679C15.7031 16.6131 14.1094 16.2713 12 16.2076V19.9468C11.9996 20.0932 11.9563 20.2363 11.8755 20.3584C11.7947 20.4804 11.68 20.5762 11.5454 20.6339C11.4108 20.6915 11.2624 20.7086 11.1182 20.6828C10.9741 20.6571 10.8407 20.5898 10.7344 20.4892L2.48437 12.6142C2.41106 12.5441 2.3527 12.46 2.31284 12.3667C2.27297 12.2735 2.25241 12.1732 2.25241 12.0718C2.25241 11.9704 2.27297 11.8701 2.31284 11.7769C2.3527 11.6837 2.41106 11.5995 2.48437 11.5295L10.7344 3.65446C10.8407 3.55382 10.9741 3.48648 11.1182 3.46076C11.2624 3.43504 11.4108 3.45206 11.5454 3.50973C11.68 3.56739 11.7947 3.66317 11.8755 3.78526C11.9563 3.90735 11.9996 4.05041 12 4.19681V7.96368C15.4753 8.12352 18.0647 9.41259 19.7039 11.8013C21.0619 13.7799 21.75 16.5202 21.75 19.9468C21.75 20.1457 21.671 20.3365 21.5303 20.4771C21.3897 20.6178 21.1989 20.6968 21 20.6968Z" fill="#505068"/>
</svg>
