<svg width="24" height="24" viewBox="0 0 24 24" fill="none" xmlns="http://www.w3.org/2000/svg">
<g clip-path="url(#clip0_474_1686)">
<path d="M22 25.6967C21.886 25.6967 21.7736 25.6707 21.6712 25.6208C21.5687 25.5708 21.4791 25.4982 21.4089 25.4084C20.3373 24.0364 19.3431 22.9775 17.972 22.2678C16.7031 21.6129 15.1094 21.2712 13 21.2075V24.9467C12.9996 25.0931 12.9563 25.2361 12.8755 25.3582C12.7947 25.4803 12.68 25.5761 12.5454 25.6338C12.4108 25.6914 12.2624 25.7084 12.1182 25.6827C11.9741 25.657 11.8407 25.5897 11.7344 25.489L3.48437 17.614C3.41106 17.544 3.3527 17.4598 3.31284 17.3666C3.27297 17.2734 3.25241 17.1731 3.25241 17.0717C3.25241 16.9703 3.27297 16.87 3.31284 16.7768C3.3527 16.6835 3.41106 16.5994 3.48437 16.5293L11.7344 8.65434C11.8407 8.55369 11.9741 8.48636 12.1182 8.46064C12.2624 8.43492 12.4108 8.45194 12.5454 8.5096C12.68 8.56726 12.7947 8.66305 12.8755 8.78514C12.9563 8.90723 12.9996 9.05029 13 9.19668V12.9636C16.4753 13.1234 19.0647 14.4125 20.7039 16.8012C22.0619 18.7798 22.75 21.5201 22.75 24.9467C22.75 25.1456 22.671 25.3364 22.5303 25.477C22.3897 25.6177 22.1989 25.6967 22 25.6967Z" fill="#505068"/>
</g>
<defs>
<clipPath id="clip0_474_1686">
<rect width="24" height="24" fill="white"/>
</clipPath>
</defs>
</svg>
