<svg width="24" height="25" viewBox="0 0 24 25" fill="none" xmlns="http://www.w3.org/2000/svg">
<g clip-path="url(#clip0_474_1729)">
<path d="M22 25.9446C21.8861 25.9446 21.7736 25.9187 21.6712 25.8687C21.5688 25.8188 21.4791 25.7461 21.4089 25.6563C20.3374 24.2843 19.3432 23.2254 17.9721 22.5157C16.7032 21.8609 15.1094 21.5191 13 21.4554V25.1946C12.9996 25.341 12.9563 25.4841 12.8755 25.6062C12.7947 25.7282 12.68 25.824 12.5454 25.8817C12.4109 25.9394 12.2624 25.9564 12.1183 25.9307C11.9742 25.9049 11.8407 25.8376 11.7344 25.737L3.4844 17.862C3.41109 17.7919 3.35274 17.7078 3.31287 17.6145C3.273 17.5213 3.25244 17.421 3.25244 17.3196C3.25244 17.2182 3.273 17.1179 3.31287 17.0247C3.35274 16.9315 3.41109 16.8473 3.4844 16.7773L11.7344 8.90226C11.8407 8.80162 11.9742 8.73428 12.1183 8.70856C12.2624 8.68285 12.4109 8.69987 12.5454 8.75753C12.68 8.81519 12.7947 8.91097 12.8755 9.03306C12.9563 9.15515 12.9996 9.29822 13 9.44461V13.2115C16.4753 13.3713 19.0647 14.6604 20.7039 17.0491C22.0619 19.0277 22.75 21.768 22.75 25.1946C22.75 25.3935 22.671 25.5843 22.5304 25.7249C22.3897 25.8656 22.1989 25.9446 22 25.9446Z" fill="#505068"/>
</g>
<defs>
<clipPath id="clip0_474_1729">
<rect width="24" height="24" fill="white" transform="translate(0 0.247803)"/>
</clipPath>
</defs>
</svg>
