<svg width="24" height="25" viewBox="0 0 24 25" fill="none" xmlns="http://www.w3.org/2000/svg">
<path d="M23.3461 21.1434C23.2467 21.1434 23.1487 21.1209 23.0594 21.0774C22.9701 21.034 22.8919 20.9708 22.8307 20.8927C21.8964 19.6995 21.0295 18.7786 19.8341 18.1614C18.7277 17.5919 17.3381 17.2947 15.4989 17.2392V20.4912C15.4986 20.6185 15.4608 20.7429 15.3904 20.8491C15.32 20.9553 15.2199 21.0386 15.1026 21.0887C14.9853 21.1389 14.8558 21.1537 14.7301 21.1313C14.6045 21.1089 14.4881 21.0504 14.3954 20.9628L7.20225 14.1141C7.13833 14.0532 7.08745 13.98 7.05268 13.8989C7.01792 13.8179 7 13.7306 7 13.6424C7 13.5543 7.01792 13.467 7.05268 13.3859C7.08745 13.3049 7.13833 13.2317 7.20225 13.1708L14.3954 6.32204C14.4881 6.2345 14.6045 6.17595 14.7301 6.15358C14.8558 6.13121 14.9853 6.14601 15.1026 6.19616C15.2199 6.24631 15.32 6.32961 15.3904 6.43579C15.4608 6.54197 15.4986 6.66639 15.4989 6.7937V10.0697C18.5291 10.2087 20.7868 11.3298 22.216 13.4072C23.4 15.128 24 17.5112 24 20.4912C24 20.6642 23.9311 20.8301 23.8085 20.9524C23.6858 21.0747 23.5195 21.1434 23.3461 21.1434Z" fill="#505068"/>
</svg>
