<svg width="24" height="24" viewBox="0 0 24 24" fill="none" xmlns="http://www.w3.org/2000/svg">
<path d="M23.3461 21C23.2467 21 23.1487 20.9774 23.0594 20.934C22.9701 20.8906 22.8919 20.8274 22.8307 20.7493C21.8964 19.5561 21.0295 18.6351 19.8341 18.0179C18.7277 17.4484 17.3381 17.1513 15.4989 17.0958V20.3477C15.4986 20.4751 15.4608 20.5995 15.3904 20.7057C15.32 20.8118 15.2199 20.8951 15.1026 20.9453C14.9853 20.9954 14.8558 21.0102 14.7301 20.9879C14.6045 20.9655 14.4881 20.9069 14.3954 20.8194L7.20225 13.9707C7.13833 13.9098 7.08745 13.8366 7.05268 13.7555C7.01792 13.6744 7 13.5872 7 13.499C7 13.4108 7.01792 13.3236 7.05268 13.2425C7.08745 13.1614 7.13833 13.0882 7.20225 13.0273L14.3954 6.1786C14.4881 6.09107 14.6045 6.03251 14.7301 6.01015C14.8558 5.98778 14.9853 6.00258 15.1026 6.05273C15.2199 6.10287 15.32 6.18617 15.3904 6.29235C15.4608 6.39853 15.4986 6.52295 15.4989 6.65027V9.92625C18.5291 10.0653 20.7868 11.1863 22.216 13.2638C23.4 14.9845 24 17.3677 24 20.3477C24 20.5207 23.9311 20.6866 23.8085 20.809C23.6858 20.9313 23.5195 21 23.3461 21Z" fill="#505068"/>
</svg>
