<svg width="24" height="25" viewBox="0 0 24 25" fill="none" xmlns="http://www.w3.org/2000/svg">
<path d="M6.75 21.8218C6.55109 21.8218 6.36032 21.7428 6.21967 21.6021C6.07902 21.4615 6 21.2707 6 21.0718V18.0718H4.875C3.9802 18.0708 3.12233 17.7149 2.48961 17.0822C1.85689 16.4494 1.50099 15.5916 1.5 14.6968V5.69678C1.50099 4.80198 1.85689 3.94411 2.48961 3.31139C3.12233 2.67867 3.9802 2.32277 4.875 2.32178H19.125C20.0198 2.32277 20.8777 2.67867 21.5104 3.31139C22.1431 3.94411 22.499 4.80198 22.5 5.69678V14.6968C22.499 15.5916 22.1431 16.4494 21.5104 17.0822C20.8777 17.7149 20.0198 18.0708 19.125 18.0718H11.5191L7.23047 21.6479C7.09551 21.7601 6.92554 21.8216 6.75 21.8218Z" fill="#505068"/>
</svg>
