<svg width="33" height="33" viewBox="0 0 33 33" fill="none" xmlns="http://www.w3.org/2000/svg">
<g clip-path="url(#clip0_631_267)">
<path d="M16.1838 32.8936C25.0204 32.8936 32.1838 25.7301 32.1838 16.8936C32.1838 8.057 25.0204 0.893555 16.1838 0.893555C7.34728 0.893555 0.183838 8.057 0.183838 16.8936C0.183838 25.7301 7.34728 32.8936 16.1838 32.8936Z" fill="#E6007A"/>
<path d="M16.4557 7.51855C12.7487 7.51855 9.71973 10.5306 9.71973 14.2546C9.71973 15.0036 9.84373 15.7346 10.0757 16.4466C10.1579 16.6816 10.329 16.875 10.5523 16.9852C10.7756 17.0954 11.0332 17.1134 11.2697 17.0356C11.5046 16.9532 11.6978 16.782 11.8078 16.5587C11.9177 16.3354 11.9357 16.0779 11.8577 15.8416C11.6622 15.2864 11.5717 14.6998 11.5907 14.1116C11.6617 11.5996 13.6937 9.53155 16.2067 9.40755C16.865 9.37297 17.5234 9.47265 18.1419 9.70054C18.7604 9.92842 19.3261 10.2797 19.8046 10.7331C20.2831 11.1865 20.6643 11.7325 20.9251 12.3379C21.1859 12.9433 21.3209 13.5954 21.3217 14.2546C21.3202 15.4942 20.8453 16.6865 19.994 17.5876C19.1427 18.4887 17.9793 19.0307 16.7417 19.1026C16.7417 19.1026 15.7967 19.1556 15.3337 19.2276C15.1017 19.2626 14.9237 19.2986 14.7987 19.3166C14.7447 19.3346 14.6917 19.2806 14.7087 19.2266L14.8697 18.4436L15.7427 14.4156C15.7936 14.1747 15.7474 13.9235 15.614 13.7166C15.4807 13.5097 15.2711 13.3637 15.0307 13.3106C14.7897 13.2597 14.5384 13.3061 14.3315 13.4396C14.1245 13.5732 13.9787 13.783 13.9257 14.0236C13.9257 14.0236 11.8227 23.8256 11.8047 23.9326C11.7539 24.1735 11.8003 24.4249 11.9338 24.6318C12.0673 24.8388 12.2772 24.9846 12.5177 25.0376C12.7587 25.0884 13.01 25.042 13.217 24.9085C13.4239 24.775 13.5698 24.5651 13.6227 24.3246C13.6397 24.2176 13.9257 22.9166 13.9257 22.9166C14.0269 22.4396 14.273 22.0055 14.6303 21.6736C14.9875 21.3418 15.4386 21.1284 15.9217 21.0626C16.2713 21.0243 16.6217 20.9946 16.9727 20.9736C18.6647 20.8417 20.2448 20.0768 21.3977 18.8314C22.5506 17.586 23.1916 15.9517 23.1927 14.2546C23.1927 10.5306 20.1627 7.51855 16.4557 7.51855ZM16.9367 23.0236C16.7916 22.9923 16.6417 22.9901 16.4958 23.0171C16.3498 23.0442 16.2107 23.0999 16.0864 23.1811C15.9622 23.2623 15.8553 23.3673 15.7719 23.4901C15.6885 23.613 15.6303 23.7511 15.6007 23.8966C15.4757 24.5026 15.8507 25.1086 16.4737 25.2336C16.619 25.265 16.769 25.2673 16.9151 25.2402C17.0613 25.2132 17.2006 25.1574 17.325 25.0761C17.4493 24.9948 17.5563 24.8896 17.6397 24.7666C17.7231 24.6435 17.7812 24.5052 17.8107 24.3596C17.9347 23.7366 17.5607 23.1476 16.9367 23.0236Z" fill="white"/>
</g>
<defs>
<clipPath id="clip0_631_267">
<rect width="32" height="32" fill="white" transform="translate(0.183838 0.893555)"/>
</clipPath>
</defs>
</svg>
