<svg width="33" height="33" viewBox="0 0 33 33" fill="none" xmlns="http://www.w3.org/2000/svg">
<g clip-path="url(#clip0_631_411)">
<path d="M16.1838 32.8936C25.0204 32.8936 32.1838 25.7301 32.1838 16.8936C32.1838 8.057 25.0204 0.893555 16.1838 0.893555C7.34728 0.893555 0.183838 8.057 0.183838 16.8936C0.183838 25.7301 7.34728 32.8936 16.1838 32.8936Z" fill="#26A17B"/>
<path fill-rule="evenodd" clip-rule="evenodd" d="M18.1059 18.2769V18.2749C17.9959 18.2829 17.4289 18.3169 16.1639 18.3169C15.1539 18.3169 14.4429 18.2869 14.1929 18.2749V18.2779C10.3049 18.1069 7.40289 17.4299 7.40289 16.6199C7.40289 15.8109 10.3049 15.1339 14.1929 14.9599V17.6039C14.4469 17.6219 15.1749 17.6649 16.1809 17.6649C17.3879 17.6649 17.9929 17.6149 18.1059 17.6049V14.9619C21.9859 15.1349 24.8809 15.8119 24.8809 16.6199C24.8809 17.4299 21.9859 18.1049 18.1059 18.2769ZM18.1059 14.6869V12.3209H23.5199V8.71289H8.77889V12.3209H14.1929V14.6859C9.79289 14.8879 6.48389 15.7599 6.48389 16.8039C6.48389 17.8479 9.79289 18.7189 14.1929 18.9219V26.5039H18.1059V18.9199C22.4989 18.7179 25.7999 17.8469 25.7999 16.8039C25.7999 15.7609 22.4989 14.8899 18.1059 14.6869Z" fill="white"/>
</g>
<defs>
<clipPath id="clip0_631_411">
<rect width="32" height="32" fill="white" transform="translate(0.183838 0.893555)"/>
</clipPath>
</defs>
</svg>
