<svg width="33" height="33" viewBox="0 0 33 33" fill="none" xmlns="http://www.w3.org/2000/svg">
<g clip-path="url(#clip0_631_439)">
<path d="M16.1838 32.8936C25.0204 32.8936 32.1838 25.7301 32.1838 16.8936C32.1838 8.057 25.0204 0.893555 16.1838 0.893555C7.34728 0.893555 0.183838 8.057 0.183838 16.8936C0.183838 25.7301 7.34728 32.8936 16.1838 32.8936Z" fill="#C3A634"/>
<path fill-rule="evenodd" clip-rule="evenodd" d="M13.4318 15.5036H17.7458V17.7896H13.4318V22.6076H16.1528C17.2298 22.6076 18.1108 22.4626 18.7968 22.1706C19.4828 21.8796 20.0208 21.4766 20.4118 20.9606C20.8117 20.424 21.084 19.8032 21.2078 19.1456C21.3523 18.4037 21.4227 17.6493 21.4178 16.8936C21.4227 16.1378 21.3523 15.3834 21.2078 14.6416C21.0841 13.9839 20.8119 13.3631 20.4118 12.8266C20.0208 12.3106 19.4818 11.9076 18.7968 11.6166C18.1108 11.3246 17.2298 11.1796 16.1528 11.1796H13.4318V15.5046V15.5036ZM10.6658 17.7896H9.18384V15.5046H10.6658V8.89355H17.2148C18.4248 8.89355 19.4718 9.10355 20.3568 9.52055C21.2418 9.93955 21.9638 10.5106 22.5248 11.2356C23.0848 11.9596 23.5018 12.8076 23.7748 13.7786C24.0478 14.7496 24.1838 15.7886 24.1838 16.8936C24.1907 17.9458 24.0527 18.9939 23.7738 20.0086C23.5018 20.9786 23.0848 21.8276 22.5238 22.5516C21.9638 23.2766 21.2418 23.8476 20.3568 24.2666C19.4718 24.6846 18.4238 24.8936 17.2148 24.8936H10.6658V17.7896Z" fill="white"/>
</g>
<defs>
<clipPath id="clip0_631_439">
<rect width="32" height="32" fill="white" transform="translate(0.183838 0.893555)"/>
</clipPath>
</defs>
</svg>
