<svg width="24" height="25" viewBox="0 0 24 25" fill="none" xmlns="http://www.w3.org/2000/svg">
<path d="M12 21.1436C11.6912 21.1432 11.3897 21.0522 11.1347 20.8825C7.3565 18.3817 5.72053 16.667 4.81817 15.595C2.8952 13.3098 1.97457 10.9637 2.00053 8.42309C2.03082 5.51168 4.42637 3.14355 7.34063 3.14355C9.45975 3.14355 10.9275 4.30746 11.7822 5.27684C11.8093 5.30723 11.8428 5.33161 11.8803 5.34831C11.9179 5.36502 11.9587 5.37366 12 5.37366C12.0413 5.37366 12.0821 5.36502 12.1197 5.34831C12.1572 5.33161 12.1907 5.30723 12.2178 5.27684C13.0725 4.30652 14.5402 3.14355 16.6594 3.14355C19.5736 3.14355 21.9692 5.51168 21.9995 8.42355C22.0254 10.9646 21.1038 13.3107 19.1818 15.5954C18.2795 16.6675 16.6435 18.3821 12.8653 20.8829C12.6102 21.0525 12.3087 21.1433 12 21.1436Z" fill="#505068"/>
</svg>
