<svg width="101" height="43" viewBox="0 0 101 43" fill="none" xmlns="http://www.w3.org/2000/svg">
<g clip-path="url(#clip0_631_449)">
<path d="M17.2971 13.4635C7.92994 12.2774 1.34814 31.6345 1.34814 31.6345V42.8857H99.1839V23.9363C97.1831 21.5678 96.0463 5.23852 91.3384 3.25512C85.7667 0.907827 82.4941 10.5422 76.6282 9.86134C68.665 8.93703 66.9324 20.5362 61.4277 20.0682C52.2068 19.2844 52.987 8.05974 46.2271 8.05974C37.401 8.05974 36.8487 28.475 30.0459 28.475C24.7602 28.475 24.9274 14.4296 17.2971 13.4635Z" fill="url(#paint0_linear_631_449)"/>
<path d="M1.34814 31.6345C1.34814 31.6345 7.92995 12.2774 17.2971 13.4635C24.9274 14.4296 24.7602 28.475 30.0459 28.475C36.8487 28.475 37.401 8.05974 46.2271 8.05974C52.987 8.05974 52.2068 19.2844 61.4277 20.0682C66.9324 20.5362 68.665 8.93703 76.6282 9.86134C82.4941 10.5422 85.7667 0.907827 91.3384 3.25512C96.0463 5.23852 97.1831 21.5678 99.1839 23.9363" stroke="url(#paint1_linear_631_449)" stroke-linecap="round"/>
</g>
<defs>
<linearGradient id="paint0_linear_631_449" x1="50.1838" y1="2.88574" x2="50.1838" y2="42.8857" gradientUnits="userSpaceOnUse">
<stop stop-color="#E11A38" stop-opacity="0.3"/>
<stop offset="0.692708" stop-color="#E11A38" stop-opacity="0"/>
</linearGradient>
<linearGradient id="paint1_linear_631_449" x1="1.18384" y1="31.8896" x2="99.1838" y2="31.8896" gradientUnits="userSpaceOnUse">
<stop stop-color="#E11A38" stop-opacity="0"/>
<stop offset="1" stop-color="#E11A38"/>
</linearGradient>
<clipPath id="clip0_631_449">
<rect width="100" height="42" fill="white" transform="translate(0.183838 0.889648)"/>
</clipPath>
</defs>
</svg>
