<svg width="101" height="43" viewBox="0 0 101 43" fill="none" xmlns="http://www.w3.org/2000/svg">
<g clip-path="url(#clip0_631_421)">
<path d="M16.1838 20.0684C8.83764 20.1226 1.34814 31.6347 1.34814 31.6347V42.8858H99.1839V9.86152C99.1839 9.86152 92.2571 17.4348 86.6839 16.888C81.916 16.4203 81.3694 10.5482 76.6282 9.86152C69.5517 8.83664 68.4346 18.644 61.4277 20.0684C55.7489 21.2228 52.3954 17.4113 46.6839 18.3909C39.1954 19.6753 37.6322 28.8944 30.0459 28.4752C23.7244 28.1258 22.5149 20.0216 16.1838 20.0684Z" fill="url(#paint0_linear_631_421)"/>
<path d="M1.34814 31.6362C1.34814 31.6362 8.83764 20.1241 16.1838 20.0698C22.5149 20.0231 23.7244 28.1273 30.0459 28.4766C37.6322 28.8959 39.1954 19.6768 46.6839 18.3924C52.3954 17.4128 55.7489 21.2242 61.4277 20.0698C68.4346 18.6455 69.5517 8.83811 76.6282 9.86299C81.3694 10.5497 81.916 16.4218 86.6839 16.8895C92.2571 17.4363 99.1839 9.86299 99.1839 9.86299" stroke="url(#paint1_linear_631_421)" stroke-linecap="round"/>
</g>
<defs>
<linearGradient id="paint0_linear_631_421" x1="50.1838" y1="4.86746" x2="50.1838" y2="42.8842" gradientUnits="userSpaceOnUse">
<stop stop-color="#02C173" stop-opacity="0.3"/>
<stop offset="0.817708" stop-color="#02C173" stop-opacity="0"/>
</linearGradient>
<linearGradient id="paint1_linear_631_421" x1="99.1838" y1="30.362" x2="1.18384" y2="30.362" gradientUnits="userSpaceOnUse">
<stop stop-color="#02C173"/>
<stop offset="1" stop-color="#02C173" stop-opacity="0"/>
</linearGradient>
<clipPath id="clip0_631_421">
<rect width="100" height="42" fill="white" transform="translate(0.183838 0.889648)"/>
</clipPath>
</defs>
</svg>
