<svg width="36" height="35" viewBox="0 0 36 35" fill="none" xmlns="http://www.w3.org/2000/svg">
<path d="M30.9814 23.2376C29.8174 22.073 27.6386 20.3212 27.6386 14.5832C27.6407 12.524 26.8716 10.5286 25.4636 8.94013C24.0557 7.35169 22.0969 6.26961 19.9243 5.88004V4.71138C19.9243 4.47567 19.8744 4.24227 19.7775 4.02451C19.6806 3.80674 19.5385 3.60888 19.3594 3.44221C19.1804 3.27554 18.9678 3.14333 18.7338 3.05313C18.4998 2.96293 18.249 2.9165 17.9957 2.9165C17.7425 2.9165 17.4917 2.96293 17.2577 3.05313C17.0237 3.14333 16.8111 3.27554 16.632 3.44221C16.453 3.60888 16.3109 3.80674 16.214 4.02451C16.1171 4.24227 16.0672 4.47567 16.0672 4.71138V5.88004C13.8946 6.26961 11.9358 7.35169 10.5279 8.94013C9.11994 10.5286 8.35084 12.524 8.35293 14.5832C8.35293 20.3212 6.17408 22.073 5.01009 23.2376C4.67807 23.5672 4.4954 24.0032 4.50009 24.455C4.50031 24.6911 4.55055 24.9248 4.64792 25.1429C4.7453 25.3609 4.8879 25.5589 5.06757 25.7256C5.24725 25.8923 5.46047 26.0244 5.69505 26.1144C5.92962 26.2043 6.18095 26.2504 6.43465 26.2498H29.5654C29.8191 26.2504 30.0704 26.2043 30.305 26.1144C30.5396 26.0244 30.7528 25.8923 30.9325 25.7256C31.1122 25.5589 31.2548 25.3609 31.3521 25.1429C31.4495 24.9248 31.4998 24.6911 31.5 24.455C31.5023 24.0021 31.3165 23.566 30.9814 23.2376Z" stroke="white" stroke-width="1.5"/>
<path d="M22.5 29.1665C22.5 30.3268 22.0259 31.4396 21.182 32.2601C20.3381 33.0806 19.1935 33.5415 18 33.5415C16.8065 33.5415 15.6619 33.0806 14.818 32.2601C13.9741 31.4396 13.5 30.3268 13.5 29.1665L18 29.1665H22.5Z" fill="white"/>
</svg>
