<svg width="25" height="25" viewBox="0 0 25 25" fill="none" xmlns="http://www.w3.org/2000/svg">
<path d="M20.8381 16.828C20.0621 16.0294 18.6095 14.8282 18.6095 10.8936C18.6109 9.48156 18.0982 8.11325 17.1596 7.02404C16.2209 5.93483 14.9151 5.19282 13.4667 4.92569V4.12432C13.4667 3.9627 13.4335 3.80265 13.3688 3.65333C13.3042 3.50401 13.2095 3.36833 13.0901 3.25404C12.9707 3.13975 12.829 3.04909 12.673 2.98724C12.517 2.92539 12.3498 2.89355 12.181 2.89355C12.0122 2.89355 11.845 2.92539 11.689 2.98724C11.533 3.04909 11.3913 3.13975 11.2719 3.25404C11.1525 3.36833 11.0578 3.50401 10.9932 3.65333C10.9285 3.80265 10.8953 3.9627 10.8953 4.12432V4.92569C9.44691 5.19282 8.14106 5.93483 7.20243 7.02404C6.2638 8.11325 5.75107 9.48156 5.75246 10.8936C5.75246 14.8282 4.29989 16.0294 3.5239 16.828C3.30255 17.054 3.18077 17.353 3.1839 17.6628C3.18405 17.8247 3.21754 17.985 3.28245 18.1345C3.34737 18.284 3.44244 18.4198 3.56222 18.5341C3.682 18.6484 3.82415 18.739 3.98054 18.8007C4.13692 18.8623 4.30447 18.8939 4.47361 18.8936H19.8941C20.0632 18.8939 20.2308 18.8623 20.3872 18.8007C20.5436 18.739 20.6857 18.6484 20.8055 18.5341C20.9253 18.4198 21.0203 18.284 21.0853 18.1345C21.1502 17.985 21.1837 17.8247 21.1838 17.6628C21.1854 17.3523 21.0615 17.0532 20.8381 16.828Z" stroke="white" stroke-width="1.5"/>
<path d="M15.1838 20.8936C15.1838 21.6892 14.8678 22.4523 14.3052 23.0149C13.7425 23.5775 12.9795 23.8936 12.1838 23.8936C11.3882 23.8936 10.6251 23.5775 10.0625 23.0149C9.49991 22.4523 9.18384 21.6892 9.18384 20.8936L12.1838 20.8936H15.1838Z" fill="white"/>
</svg>
