<svg width="44" height="45" viewBox="0 0 44 45" fill="none" xmlns="http://www.w3.org/2000/svg">
<g opacity="0.5">
<path d="M33.0735 25.4062C32.3035 26.175 31.8635 27.2812 31.9735 28.4625C32.1385 30.4875 33.9535 31.9687 35.9335 31.9687H39.4168V34.2C39.4168 38.0812 36.3185 41.25 32.5235 41.25H11.4768C7.68183 41.25 4.5835 38.0812 4.5835 34.2V21.5813C4.5835 17.7 7.68183 14.5312 11.4768 14.5312H32.5235C36.3185 14.5312 39.4168 17.7 39.4168 21.5813V24.2813H35.7135C34.6868 24.2813 33.7518 24.6937 33.0735 25.4062Z" stroke="white" stroke-width="1.5" stroke-linecap="round" stroke-linejoin="round"/>
<path d="M4.5835 23.2687V14.7C4.5835 12.4688 5.92183 10.4812 7.95683 9.69371L22.5135 4.06871C24.7868 3.18746 27.2252 4.91252 27.2252 7.40627V14.5312" stroke="white" stroke-width="1.5" stroke-linecap="round" stroke-linejoin="round"/>
<path d="M41.358 26.1942V30.0568C41.358 31.088 40.5513 31.9317 39.5246 31.9692H35.9313C33.9513 31.9692 32.1363 30.488 31.9713 28.463C31.8613 27.2817 32.3013 26.1754 33.0713 25.4067C33.7497 24.6942 34.6846 24.2817 35.7113 24.2817H39.5246C40.5513 24.3192 41.358 25.1629 41.358 26.1942Z" stroke="white" stroke-width="1.5" stroke-linecap="round" stroke-linejoin="round"/>
<path d="M12.8335 22.5H25.6668" stroke="white" stroke-width="1.5" stroke-linecap="round" stroke-linejoin="round"/>
</g>
</svg>
