<svg width="25" height="25" viewBox="0 0 25 25" fill="none" xmlns="http://www.w3.org/2000/svg">
<path d="M12.3439 11.7636C12.2439 11.7536 12.1239 11.7536 12.0139 11.7636C9.6339 11.6836 7.7439 9.73355 7.7439 7.33355C7.7439 4.88355 9.7239 2.89355 12.1839 2.89355C14.6339 2.89355 16.6239 4.88355 16.6239 7.33355C16.6139 9.73355 14.7239 11.6836 12.3439 11.7636Z" stroke="white" stroke-width="1.5" stroke-linecap="round" stroke-linejoin="round"/>
<path d="M7.34381 15.4536C4.92381 17.0736 4.92381 19.7136 7.34381 21.3236C10.0938 23.1636 14.6038 23.1636 17.3538 21.3236C19.7738 19.7036 19.7738 17.0636 17.3538 15.4536C14.6138 13.6236 10.1038 13.6236 7.34381 15.4536Z" stroke="white" stroke-width="1.5" stroke-linecap="round" stroke-linejoin="round"/>
</svg>
