<svg width="25" height="25" viewBox="0 0 25 25" fill="none" xmlns="http://www.w3.org/2000/svg">
<g opacity="0.5">
<path d="M18.2238 14.4435C17.8038 14.8535 17.5638 15.4435 17.6238 16.0735C17.7138 17.1535 18.7038 17.9435 19.7838 17.9435H21.6838V19.1335C21.6838 21.2035 19.9938 22.8936 17.9238 22.8936H6.44384C4.37384 22.8936 2.68384 21.2035 2.68384 19.1335V12.4036C2.68384 10.3336 4.37384 8.64355 6.44384 8.64355H17.9238C19.9938 8.64355 21.6838 10.3336 21.6838 12.4036V13.8436H19.6638C19.1038 13.8436 18.5938 14.0635 18.2238 14.4435Z" stroke="white" stroke-width="1.5" stroke-linecap="round" stroke-linejoin="round"/>
<path d="M2.68384 13.3038V8.7339C2.68384 7.5439 3.41384 6.48386 4.52384 6.06386L12.4638 3.06386C13.7038 2.59386 15.0338 3.51389 15.0338 4.84389V8.64388" stroke="white" stroke-width="1.5" stroke-linecap="round" stroke-linejoin="round"/>
<path d="M22.7426 14.8637V16.9238C22.7426 17.4738 22.3026 17.9237 21.7426 17.9437H19.7826C18.7026 17.9437 17.7126 17.1537 17.6226 16.0737C17.5626 15.4437 17.8026 14.8537 18.2226 14.4437C18.5926 14.0637 19.1026 13.8438 19.6626 13.8438H21.7426C22.3026 13.8637 22.7426 14.3137 22.7426 14.8637Z" stroke="white" stroke-width="1.5" stroke-linecap="round" stroke-linejoin="round"/>
<path d="M7.18384 12.8936H14.1838" stroke="white" stroke-width="1.5" stroke-linecap="round" stroke-linejoin="round"/>
</g>
</svg>
