<svg width="25" height="25" viewBox="0 0 25 25" fill="none" xmlns="http://www.w3.org/2000/svg">
<g opacity="0.5">
<path d="M22.1838 13.8936V9.89355C22.1838 4.89355 20.1838 2.89355 15.1838 2.89355H9.18384C4.18384 2.89355 2.18384 4.89355 2.18384 9.89355V15.8936C2.18384 20.8936 4.18384 22.8936 9.18384 22.8936H13.1838" stroke="white" stroke-width="1.5" stroke-linecap="round" stroke-linejoin="round"/>
<path d="M7.51392 15.3833L9.89392 12.2933C10.2339 11.8533 10.8639 11.7733 11.3039 12.1133L13.1339 13.5533C13.5739 13.8933 14.2039 13.8133 14.5439 13.3833L16.8539 10.4033" stroke="white" stroke-width="1.5" stroke-linecap="round" stroke-linejoin="round"/>
<path d="M19.6638 16.714L19.9438 17.284C20.0838 17.564 20.4338 17.824 20.7438 17.884L21.1238 17.944C22.2638 18.134 22.5338 18.974 21.7138 19.804L21.3638 20.154C21.1338 20.394 21.0038 20.854 21.0738 21.174L21.1238 21.384C21.4338 22.764 20.7038 23.294 19.5038 22.574L19.2438 22.424C18.9338 22.244 18.4338 22.244 18.1238 22.424L17.8638 22.574C16.6538 23.304 15.9238 22.764 16.2438 21.384L16.2938 21.174C16.3638 20.854 16.2338 20.394 16.0038 20.154L15.6538 19.804C14.8338 18.974 15.1038 18.134 16.2438 17.944L16.6238 17.884C16.9238 17.834 17.2838 17.564 17.4238 17.284L17.7038 16.714C18.2438 15.624 19.1238 15.624 19.6638 16.714Z" stroke="white" stroke-width="1.5" stroke-linecap="round" stroke-linejoin="round"/>
</g>
</svg>
