<svg width="20" height="21" viewBox="0 0 20 21" fill="none" xmlns="http://www.w3.org/2000/svg">
<path fill-rule="evenodd" clip-rule="evenodd" d="M10 0.5C5.23061 0.5 2.42702 4.05539 2.04498 7.65521C0.856353 8.05408 0 9.17703 0 10.5V12.5C0 14.1569 1.34315 15.5 3 15.5C4.65685 15.5 6 14.1569 6 12.5V10.5C6 9.31733 5.31565 8.2945 4.32134 7.80591C4.58547 5.22416 6.33141 2.5 10 2.5C13.6686 2.5 15.4145 5.22416 15.6787 7.80592C14.6844 8.29451 14 9.31733 14 10.5V12.5C14 13.3885 14.3863 14.1868 15 14.7361V16.1204C15 17.4346 13.9346 18.5 12.6204 18.5H12C11.4477 18.5 11 18.9477 11 19.5C11 20.0523 11.4477 20.5 12 20.5H12.6204C15.0392 20.5 17 18.5392 17 16.1204V15.5C18.6569 15.5 20 14.1569 20 12.5V10.5C20 9.17703 19.1436 8.05408 17.955 7.65521C17.573 4.05539 14.7694 0.5 10 0.5ZM4 10.5C4 9.94771 3.55228 9.5 3 9.5C2.44772 9.5 2 9.94771 2 10.5V12.5C2 13.0523 2.44772 13.5 3 13.5C3.55228 13.5 4 13.0523 4 12.5V10.5ZM17 9.5C17.5523 9.5 18 9.94771 18 10.5V12.5C18 13.0523 17.5523 13.5 17 13.5C16.4477 13.5 16 13.0523 16 12.5V10.5C16 9.94771 16.4477 9.5 17 9.5Z" fill="white"/>
</svg>
