<svg width="31" height="30" viewBox="0 0 31 30" fill="none" xmlns="http://www.w3.org/2000/svg">
<path d="M15.7068 13.5875C15.5776 13.575 15.4226 13.575 15.2806 13.5875C12.2064 13.4875 9.76514 11.05 9.76514 8.05C9.76514 4.9875 12.3226 2.5 15.5001 2.5C18.6647 2.5 21.2351 4.9875 21.2351 8.05C21.2222 11.05 18.781 13.4875 15.7068 13.5875Z" stroke="white" stroke-width="1.5" stroke-linecap="round" stroke-linejoin="round"/>
<path d="M9.24818 18.2C6.12235 20.225 6.12235 23.525 9.24818 25.5375C12.8003 27.8375 18.6257 27.8375 22.1778 25.5375C25.3036 23.5125 25.3036 20.2125 22.1778 18.2C18.6386 15.9125 12.8132 15.9125 9.24818 18.2Z" stroke="white" stroke-width="1.5" stroke-linecap="round" stroke-linejoin="round"/>
</svg>
