<svg width="34" height="34" viewBox="0 0 34 34" fill="none" xmlns="http://www.w3.org/2000/svg">
<path d="M17.2266 15.3993C17.085 15.3852 16.915 15.3852 16.7591 15.3993C13.3875 15.286 10.71 12.5235 10.71 9.1235C10.71 5.65266 13.515 2.8335 17 2.8335C20.4708 2.8335 23.29 5.65266 23.29 9.1235C23.2758 12.5235 20.5983 15.286 17.2266 15.3993Z" stroke="white" stroke-width="1.5" stroke-linecap="round" stroke-linejoin="round"/>
<path d="M10.1435 20.6265C6.71518 22.9215 6.71518 26.6615 10.1435 28.9423C14.0393 31.549 20.4285 31.549 24.3243 28.9423C27.7527 26.6473 27.7527 22.9073 24.3243 20.6265C20.4427 18.034 14.0535 18.034 10.1435 20.6265Z" stroke="white" stroke-width="1.5" stroke-linecap="round" stroke-linejoin="round"/>
</svg>
