<svg width="35" height="34" viewBox="0 0 35 34" fill="none" xmlns="http://www.w3.org/2000/svg">
<path d="M30.1208 22.5738C28.9892 21.4424 26.8708 19.7406 26.8708 14.1666C26.8729 12.1663 26.1251 10.2278 24.7563 8.68477C23.3874 7.14172 21.4831 6.09055 19.3709 5.71211V4.57684C19.3709 4.34787 19.3224 4.12114 19.2281 3.9096C19.1339 3.69806 18.9958 3.50584 18.8217 3.34394C18.6476 3.18203 18.4409 3.0536 18.2134 2.96597C17.9859 2.87835 17.7421 2.83325 17.4959 2.83325C17.2496 2.83325 17.0058 2.87835 16.7783 2.96597C16.5509 3.0536 16.3442 3.18203 16.17 3.34394C15.9959 3.50584 15.8578 3.69806 15.7636 3.9096C15.6694 4.12114 15.6209 4.34787 15.6209 4.57684V5.71211C13.5086 6.09055 11.6043 7.14172 10.2354 8.68477C8.86661 10.2278 8.11888 12.1663 8.1209 14.1666C8.1209 19.7406 6.00258 21.4424 4.87092 22.5738C4.54813 22.8939 4.37053 23.3175 4.37509 23.7563C4.3753 23.9857 4.42414 24.2128 4.51881 24.4246C4.61348 24.6364 4.75212 24.8288 4.92681 24.9907C5.10149 25.1526 5.30879 25.281 5.53685 25.3683C5.76491 25.4557 6.00925 25.5004 6.25591 25.4999H28.7442C28.9908 25.5004 29.2352 25.4557 29.4632 25.3683C29.6913 25.281 29.8986 25.1526 30.0733 24.9907C30.2479 24.8288 30.3866 24.6364 30.4813 24.4246C30.5759 24.2128 30.6248 23.9857 30.625 23.7563C30.6273 23.3164 30.4466 22.8927 30.1208 22.5738Z" stroke="white" stroke-width="1.5"/>
<path d="M21.875 28.3333C21.875 29.4604 21.4141 30.5414 20.5936 31.3385C19.7731 32.1355 18.6603 32.5833 17.5 32.5833C16.3397 32.5833 15.2269 32.1355 14.4064 31.3385C13.5859 30.5414 13.125 29.4604 13.125 28.3333L17.5 28.3333H21.875Z" fill="white"/>
</svg>
