<svg width="25" height="25" viewBox="0 0 25 25" fill="none" xmlns="http://www.w3.org/2000/svg">
<g opacity="0.5">
<path d="M3.18384 22.8936H21.1838" stroke="white" stroke-width="1.5" stroke-linecap="round" stroke-linejoin="round"/>
<path d="M5.78381 9.27344H4.18384C3.63384 9.27344 3.18384 9.72344 3.18384 10.2734V18.8934C3.18384 19.4434 3.63384 19.8934 4.18384 19.8934H5.78381C6.33381 19.8934 6.78381 19.4434 6.78381 18.8934V10.2734C6.78381 9.72344 6.33381 9.27344 5.78381 9.27344Z" stroke="white" stroke-width="1.5" stroke-linecap="round" stroke-linejoin="round"/>
<path d="M12.9838 6.08398H11.3838C10.8338 6.08398 10.3838 6.53398 10.3838 7.08398V18.894C10.3838 19.444 10.8338 19.894 11.3838 19.894H12.9838C13.5338 19.894 13.9838 19.444 13.9838 18.894V7.08398C13.9838 6.53398 13.5338 6.08398 12.9838 6.08398Z" stroke="white" stroke-width="1.5" stroke-linecap="round" stroke-linejoin="round"/>
<path d="M20.184 2.89355H18.584C18.034 2.89355 17.584 3.34355 17.584 3.89355V18.8936C17.584 19.4436 18.034 19.8936 18.584 19.8936H20.184C20.734 19.8936 21.184 19.4436 21.184 18.8936V3.89355C21.184 3.34355 20.734 2.89355 20.184 2.89355Z" stroke="white" stroke-width="1.5" stroke-linecap="round" stroke-linejoin="round"/>
</g>
</svg>
