<svg width="20" height="18" viewBox="0 0 20 18" fill="none" xmlns="http://www.w3.org/2000/svg">
<path d="M10 18C9.69122 17.9996 9.3897 17.9086 9.13466 17.7389C5.3565 15.2381 3.72053 13.5234 2.81817 12.4514C0.895198 10.1663 -0.0254263 7.82016 0.000533826 5.27953C0.0308207 2.36813 2.42637 0 5.34063 0C7.45975 0 8.92746 1.16391 9.78222 2.13328C9.8093 2.16368 9.84275 2.18805 9.88033 2.20476C9.9179 2.22146 9.95871 2.23011 10 2.23011C10.0413 2.23011 10.0821 2.22146 10.1197 2.20476C10.1572 2.18805 10.1907 2.16368 10.2178 2.13328C11.0725 1.16297 12.5402 0 14.6594 0C17.5736 0 19.9692 2.36812 19.9995 5.28C20.0254 7.82109 19.1038 10.1672 17.1818 12.4519C16.2795 13.5239 14.6435 15.2386 10.8653 17.7394C10.6102 17.9089 10.3087 17.9998 10 18Z" fill="#505068"/>
</svg>
