<svg width="20" height="20" viewBox="0 0 20 20" fill="none" xmlns="http://www.w3.org/2000/svg">
<path d="M10 19.1042C9.69122 19.1038 9.3897 19.0077 9.13466 18.8284C5.3565 16.1867 3.72053 14.3754 2.81817 13.243C0.895198 10.8291 -0.0254263 8.35084 0.000533826 5.66707C0.0308207 2.59164 2.42637 0.0900879 5.34063 0.0900879C7.45975 0.0900879 8.92746 1.31957 9.78222 2.34356C9.8093 2.37567 9.84275 2.40142 9.88033 2.41907C9.9179 2.43671 9.95871 2.44584 10 2.44584C10.0413 2.44584 10.0821 2.43671 10.1197 2.41907C10.1572 2.40142 10.1907 2.37567 10.2178 2.34356C11.0725 1.31858 12.5402 0.0900879 14.6594 0.0900879C17.5736 0.0900879 19.9692 2.59163 19.9995 5.66757C20.0254 8.35183 19.1038 10.8301 17.1818 13.2435C16.2795 14.3759 14.6435 16.1872 10.8653 18.8289C10.6102 19.008 10.3087 19.104 10 19.1042Z" fill="#505068"/>
</svg>
